<svg xmlns="http://www.w3.org/2000/svg" version="1.1" xmlns:xlink="http://www.w3.org/1999/xlink" xmlns:svgjs="http://svgjs.dev/svgjs" width="1440" height="560" preserveAspectRatio="none" viewBox="0 0 1440 560"><g mask="url(&quot;#SvgjsMask1008&quot;)" fill="none"><rect width="1440" height="560" x="0" y="0" fill="#0e2a47"></rect><path d="M720 664.03C835.53 670.86 962.83 686.2 1049.53 609.53 1139.29 530.14 1166.86 399.14 1154.15 280 1142.55 171.57 1064.45 89.7 985.91 14.09 909.45-59.52 826.15-136.94 720-137.89 613.21-138.85 522.9-68.09 449.26 9.26 377.76 84.33 326.08 176.4 322.03 280 317.81 387.75 349.64 497.91 427.23 572.77 503.69 646.59 613.89 657.77 720 664.03" fill="#1c538e"></path><path d="M720 528.49C794.76 532.91 877.12 542.83 933.22 493.22 991.3 441.85 1009.15 357.09 1000.92 280 993.42 209.84 942.88 156.87 892.06 107.94 842.58 60.31 788.68 10.21 720 9.6 650.9 8.98 592.47 54.76 544.81 104.81 498.55 153.39 465.11 212.97 462.49 280 459.76 349.72 480.35 421 530.56 469.44 580.04 517.2 651.34 524.44 720 528.49" fill="#2774c6"></path><path d="M720 392.95C753.98 394.96 791.42 399.47 816.92 376.92 843.32 353.57 851.43 315.04 847.69 280 844.28 248.11 821.31 224.03 798.21 201.79 775.72 180.14 751.22 157.37 720 157.09 688.59 156.81 662.03 177.62 640.37 200.37 619.34 222.45 604.14 249.53 602.95 280 601.71 311.69 611.07 344.09 633.89 366.11 656.38 387.82 688.79 391.11 720 392.95" fill="#488fdb"></path></g><defs><mask id="SvgjsMask1008"><rect width="1440" height="560" fill="#ffffff"></rect></mask></defs></svg>