<svg xmlns="http://www.w3.org/2000/svg" version="1.1" xmlns:xlink="http://www.w3.org/1999/xlink" xmlns:svgjs="http://svgjs.dev/svgjs" width="1440" height="560" preserveAspectRatio="none" viewBox="0 0 1440 560"><g mask="url(&quot;#SvgjsMask1006&quot;)" fill="none"><rect width="1440" height="560" x="0" y="0" fill="#0e2a47"></rect><path d="M0,519.206C95.633,521.06,171.597,442.41,244.604,380.611C309.848,325.384,350.414,252.679,398.421,181.953C456.987,95.671,554.437,24.106,557.345,-80.134C560.316,-186.636,477.093,-272.816,413.492,-358.293C345.25,-450.008,283.822,-560.879,174.578,-594.558C65.052,-628.324,-53.087,-582.832,-156.831,-534.116C-250.302,-490.224,-309.444,-404.245,-383.645,-332.43C-466.14,-252.588,-609.332,-203.262,-617.028,-88.715C-624.852,27.732,-492.983,101.148,-418.83,191.273C-363.77,258.192,-306.816,317.82,-238.584,371.244C-163.379,430.128,-95.497,517.355,0,519.206" fill="#0b2239"></path><path d="M1440 1024.577C1532.073 1024.931 1625.618 1018.857 1705.776 973.5550000000001 1788.539 926.781 1866.237 858.351 1894.645 767.629 1922.118 679.892 1872.147 590.6 1853.904 500.49 1836.85 416.256 1853.055 315.32 1791.028 255.832 1729.181 196.51600000000002 1629.027 218.39999999999998 1544.581 203.829 1471.093 191.149 1397.548 151.082 1327.189 175.8 1257.622 200.23899999999998 1227.32 278.176 1177.701 332.717 1126.571 388.918 1062.641 432.074 1031.1399999999999 501.21500000000003 992.358 586.338 950.5740000000001 681.554 978.028 770.975 1006.135 862.52 1091.588 925.434 1175.534 971.517 1255.981 1015.679 1348.23 1024.224 1440 1024.577" fill="#113255"></path></g><defs><mask id="SvgjsMask1006"><rect width="1440" height="560" fill="#ffffff"></rect></mask></defs></svg>